<?xml version="1.0" encoding="UTF-8"?>
<!-- Generator: Adobe Illustrator 15.0.2, SVG Export Plug-In . SVG Version: 6.00 Build 0)  -->
<!DOCTYPE svg PUBLIC "-//W3C//DTD SVG 1.1//EN" "http://www.w3.org/Graphics/SVG/1.1/DTD/svg11.dtd">
<svg xmlns="http://www.w3.org/2000/svg" xmlns:xlink="http://www.w3.org/1999/xlink" version="1.1" id="Layer_1" x="0px" y="0px" width="512px" height="816.288px" viewBox="0 0 512 816.288" enable-background="new 0 0 512 816.288" xml:space="preserve">
<path d="M512,264.68C512,120.69,401.28,0,256.2,0S0,120.77,0,264.81C0,312.32,6.64,348.16,29.14,389.12h-0.43l219.04,422.32  c8.23,11.279,16.87-0.66,16.87-0.66c-7.39,11.08,219.04-421.66,219.04-421.66h-0.18C505.76,348.16,512,312.24,512,264.68z   M138.26,256.57c0-67.931,52.82-122.96,117.94-122.96s117.96,55.029,117.96,122.96c0,67.93-52.84,122.989-117.96,122.989  S138.26,324.53,138.26,256.57z" fill="#000000"/>
</svg>
