<svg xmlns="http://www.w3.org/2000/svg" width="49.652" height="49.652" viewBox="0 0 49.652 49.652"><g fill="#fff"><path d="M24.825 29.796c2.74 0 4.972-2.23 4.972-4.97 0-1.082-.354-2.08-.94-2.897a4.964 4.964 0 0 0-4.03-2.074c-1.658 0-3.125.82-4.03 2.072a4.947 4.947 0 0 0-.94 2.897 4.973 4.973 0 0 0 4.968 4.97zM35.678 18.746V13.96l-.623.002-4.164.013.017 4.787z"/><path d="M24.826 0C11.136 0 0 11.137 0 24.826c0 13.688 11.137 24.826 24.826 24.826 13.688 0 24.826-11.138 24.826-24.826C49.652 11.136 38.516 0 24.826 0zm14.12 21.93v11.56a5.463 5.463 0 0 1-5.458 5.457H16.164a5.462 5.462 0 0 1-5.457-5.458V16.164a5.462 5.462 0 0 1 5.457-5.457h17.323a5.463 5.463 0 0 1 5.458 5.457v5.764z"/><path d="M32.55 24.826c0 4.257-3.465 7.723-7.724 7.723-4.26 0-7.722-3.467-7.722-7.724a7.67 7.67 0 0 1 .568-2.897h-4.215v11.56a2.706 2.706 0 0 0 2.706 2.703h17.323c1.49 0 2.706-1.21 2.706-2.704V21.93h-4.217c.367.893.574 1.872.574 2.896z"/></g></svg>