<svg xmlns="http://www.w3.org/2000/svg" width="49.652" height="49.652" viewBox="0 0 49.652 49.652"><path fill="#fff" d="M24.826 0C11.136 0 0 11.137 0 24.826c0 13.688 11.137 24.826 24.826 24.826 13.688 0 24.826-11.138 24.826-24.826C49.652 11.136 38.516 0 24.826 0zM35.9 19.144c.012.246.018.494.018.742 0 7.55-5.746 16.255-16.26 16.255-3.226 0-6.23-.942-8.758-2.564.447.053.902.08 1.363.08 2.678 0 5.14-.914 7.097-2.446a5.72 5.72 0 0 1-5.338-3.97 5.76 5.76 0 0 0 2.58-.095 5.715 5.715 0 0 1-4.583-5.603v-.072a5.69 5.69 0 0 0 2.587.714 5.71 5.71 0 0 1-2.54-4.755c0-1.05.28-2.03.772-2.875a16.225 16.225 0 0 0 11.776 5.972 5.707 5.707 0 0 1-.147-1.303 5.714 5.714 0 0 1 9.883-3.91 11.406 11.406 0 0 0 3.63-1.387 5.74 5.74 0 0 1-2.516 3.162 11.36 11.36 0 0 0 3.282-.9 11.494 11.494 0 0 1-2.85 2.954z"/></svg>